<svg xmlns="http://www.w3.org/2000/svg" version="1.1" xmlns:xlink="http://www.w3.org/1999/xlink" xmlns:svgjs="http://svgjs.dev/svgjs" width="1000" height="1125" viewBox="0 0 1000 1125"><g transform="matrix(1,0,0,1,0.0005762637636053114,0)"><svg viewBox="0 0 320 360" data-background-color="#ffffff" preserveAspectRatio="xMidYMid meet" height="1125" width="1000" xmlns="http://www.w3.org/2000/svg" xmlns:xlink="http://www.w3.org/1999/xlink"><g id="tight-bounds" transform="matrix(1,0,0,1,0.00018440440442191175,0)"><svg viewBox="0 0 320 360" height="360" width="320"><g><svg></svg></g><g><svg viewBox="0 0 320 360" height="360" width="320"><g><path d="M294.684 112.125c-8.775-10.699-25.381-16.201-43-22.006-7.56-2.498-15.357-5.097-22.985-8.235-7.695-3.173-15.256-7.257-22.613-11.172-14.952-8.033-30.41-16.336-46.105-16.336-15.661 0-31.119 8.303-46.071 16.336-7.358 3.949-14.952 8.033-22.648 11.205-7.594 3.139-15.425 5.704-22.985 8.236-17.618 5.839-34.224 11.341-42.999 22.006-11.712 14.277-11.442 35.439-11.172 57.817 0.034 3.375 0.068 6.717 0.067 10.024 0 3.308-0.034 6.649-0.101 10.024-0.27 22.411-0.54 43.54 11.172 57.851 8.775 10.666 25.381 16.167 42.966 22.006 7.56 2.498 15.357 5.097 23.019 8.235 7.695 3.173 15.256 7.223 22.579 11.172 14.986 8.067 30.444 16.37 46.105 16.37 15.695 0 31.153-8.303 46.105-16.336 7.358-3.949 14.918-8.033 22.614-11.172 7.594-3.139 15.357-5.704 22.884-8.202 17.72-5.873 34.326-11.374 43.101-22.039 11.712-14.277 11.442-35.439 11.171-57.817-0.034-3.409-0.101-6.75-0.101-10.058 0-3.308 0.034-6.649 0.101-9.991 0.371-22.479 0.641-43.641-11.104-57.918zM305.552 103.215c-15.728-19.171-45.801-23.727-71.486-34.326-22.985-9.45-46.375-28.588-74.051-28.587-27.676 0-51.066 19.137-74.052 28.587-25.719 10.598-55.758 15.155-71.486 34.326-17.078 20.791-14.311 50.121-14.311 76.785 0 26.63-2.768 55.994 14.277 76.785 15.728 19.171 45.801 23.727 71.487 34.326 22.985 9.484 46.375 28.588 74.051 28.587 27.676 0 51.066-19.103 74.051-28.587 25.719-10.598 55.758-15.155 71.486-34.326 17.045-20.791 14.277-50.121 14.277-76.785 0.068-26.664 2.835-55.994-14.243-76.785zM309.872 189.923c0.304 23.221 0.574 45.059-12.083 60.483-9.518 11.577-26.664 17.281-44.822 23.289-7.56 2.498-15.29 5.063-22.715 8.134-7.493 3.071-14.952 7.088-22.175 10.969-15.458 8.303-31.355 16.842-48.062 16.842-16.707 0-32.604-8.539-47.995-16.808-7.257-3.915-14.75-7.932-22.243-11.003-7.527-3.105-15.256-5.67-22.748-8.134-18.192-6.008-35.338-11.712-44.823-23.289-12.623-15.391-12.353-37.262-12.083-60.415 0.034-3.375 0.101-6.683 0.101-9.991 0-3.308-0.034-6.615-0.067-9.991-0.304-23.154-0.574-45.025 12.083-60.415 9.518-11.577 26.664-17.247 44.822-23.289 7.527-2.498 15.256-5.063 22.749-8.134 7.493-3.105 14.986-7.122 22.242-11.003 15.391-8.269 31.322-16.842 47.995-16.842 16.673 0 32.604 8.539 47.995 16.808 7.257 3.915 14.75 7.932 22.243 11.003 7.493 3.105 15.256 5.637 22.715 8.134 18.158 6.008 35.338 11.712 44.822 23.289 12.657 15.425 12.387 37.262 12.083 60.416-0.034 3.409-0.101 6.717-0.101 9.99 0 3.308 0.034 6.615 0.067 9.957z" fill="#ff5858" fill-rule="nonzero" stroke="none" stroke-width="1" stroke-linecap="butt" stroke-linejoin="miter" stroke-miterlimit="10" stroke-dasharray="" stroke-dashoffset="0" font-family="none" font-weight="none" font-size="none" text-anchor="none" style="mix-blend-mode: normal" data-fill-palette-color="tertiary"></path></g><g transform="matrix(1,0,0,1,64,127.26210720887246)"><svg viewBox="0 0 192 105.47578558225509" height="105.47578558225509" width="192"><g><svg viewBox="0 0 192 105.47578558225509" height="105.47578558225509" width="192"><g><svg viewBox="0 0 192 105.47578558225509" height="105.47578558225509" width="192"><g><svg viewBox="0 0 192 105.47578558225509" height="105.47578558225509" width="192"><g id="textblocktransform"><svg viewBox="0 0 192 105.47578558225509" height="105.47578558225509" width="192" id="textblock"><g><svg viewBox="0 0 192 105.47578558225509" height="105.47578558225509" width="192"><g transform="matrix(1,0,0,1,0,0)"><svg width="192" viewBox="0.76 -35.84 66.03 36.28" height="105.47578558225509" data-palette-color="#ffffff"><path d="M0.76-34.69L1.05-35.25Q4.61-35.57 7.96-35.71 11.3-35.84 14.58-35.84L14.58-35.84Q17.85-35.84 21.68-35.68 25.51-35.52 30.05-35.21L30.05-35.21 30.35-34.69 28.05-28.76 27.25-29Q27.42-29.86 27.5-30.6 27.59-31.35 27.59-32.01L27.59-32.01Q27.59-32.91 27.44-33.64L27.44-33.64Q24.34-33.84 21.86-33.94 19.38-34.03 17.46-34.06L17.46-34.06 17.46-4.39Q17.46-3.39 17.64-2.69 17.82-1.98 18.26-1.49 18.7-1 19.43-0.7 20.17-0.39 21.29-0.2L21.29-0.2 21.09 0.39Q19.63 0.2 18.55 0.1 17.48 0 16.75 0L16.75 0Q16.06 0 15.22 0.1 14.38 0.2 13.35 0.39L13.35 0.39 13.21 0.15Q13.7-0.56 13.7-2.44L13.7-2.44 13.7-34.06Q11.84-34.03 9.35-33.94 6.86-33.84 3.66-33.64L3.66-33.64Q3.52-32.84 3.52-31.93L3.52-31.93Q3.52-30.64 3.86-29L3.86-29 3.05-28.76 0.76-34.69ZM32.59-0.49L47.51-33.84Q48.34-34.35 49.41-35.79L49.41-35.79 49.66-35.79 63.11-3.39Q64.01-1.22 66.79-0.34L66.79-0.34 66.79 0.1Q65.21-0.07 62.99 0.04 60.76 0.15 59.06 0.44L59.06 0.44 58.86 0.2Q59.35-0.44 59.09-1.93 58.84-3.42 57.59-6.45L57.59-6.45 53.56-16.55Q46.38-16.67 41.7-16.5L41.7-16.5 36.06-3.39Q35.54-2.27 36.44-1.51 37.33-0.76 39.94-0.24L39.94-0.24 39.84 0.2Q35.59-0.12 32.91 0L32.91 0Q32.76-0.15 32.59-0.49L32.59-0.49ZM47.85-30.69L42.36-17.94Q45.9-17.85 52.95-17.94L52.95-17.94 47.85-30.69Z" opacity="1" transform="matrix(1,0,0,1,0,0)" fill="#ffffff" class="undefined-text-0" data-fill-palette-color="quaternary" id="text-0"></path></svg></g></svg></g></svg></g></svg></g><g></g></svg></g></svg></g></svg></g></svg></g><defs></defs></svg><rect width="320" height="360" fill="none" stroke="none" visibility="hidden"></rect></g></svg></g></svg>